<?xml version="1.0" encoding="iso-8859-1"?>
<!-- Generator: Adobe Illustrator 19.0.0, SVG Export Plug-In . SVG Version: 6.00 Build 0)  -->
<svg version="1.1" id="Layer_1" xmlns="http://www.w3.org/2000/svg" xmlns:xlink="http://www.w3.org/1999/xlink" x="0px" y="0px"
	 viewBox="0 0 381.335 381.335" style="enable-background:new 0 0 381.335 381.335;" xml:space="preserve">
<g>
	<g>
		<rect x="54.707" y="24.379" style="fill:#333E48;" width="191.27" height="332.576"/>
		<rect x="47.236" y="341.251" style="fill:#C3C6C8;" width="206.214" height="14.324"/>
		<rect x="80.622" y="106.078" style="fill:#61B4E4;" width="139.44" height="223.131"/>
		<rect x="80.622" y="51.21" style="fill:#61B4E4;" width="139.44" height="32.006"/>
		<path style="fill:#1E252B;" d="M257.52,9.144c0-5.029-4.115-9.144-9.145-9.144H52.31c-5.029,0-9.145,4.115-9.145,9.144v14.631
			c0,5.03,4.115,9.144,9.145,9.144h196.065c5.029,0,9.145-4.114,9.145-9.144L257.52,9.144L257.52,9.144z"/>
		<path style="fill:#1E252B;" d="M257.52,372.19c0,5.029-4.115,9.145-9.145,9.145H52.31c-5.029,0-9.145-4.115-9.145-9.145v-14.632
			c0-5.029,4.115-9.145,9.145-9.145h196.065c5.029,0,9.145,4.115,9.145,9.145L257.52,372.19L257.52,372.19z"/>
		<g>
			<path style="fill:#1E252B;" d="M106.784,170.732v-24.189c2.115-1.646,3.481-4.208,3.481-7.095c0-4.967-4.026-8.992-8.992-8.992
				c-4.966,0-8.992,4.025-8.992,8.992c0,2.887,1.366,5.449,3.481,7.095v24.189c-2.115,1.645-3.481,4.208-3.481,7.096
				c0,4.966,4.026,8.991,8.992,8.991c4.966,0,8.992-4.025,8.992-8.991C110.266,174.939,108.899,172.377,106.784,170.732z"/>
			<path style="fill:#FFFFFF;" d="M160.047,122.456c0-5.029-4.115-9.145-9.145-9.145h-40.484c-5.029,0-9.145,4.115-9.145,9.145
				v72.36c0,5.03,4.115,9.145,9.145,9.145h40.484c5.03,0,9.145-4.114,9.145-9.145V122.456z"/>
			<g>
				<path style="fill:#1E252B;" d="M122.246,137.531c0,1.129-0.924,2.051-2.052,2.051h-6.156c-1.128,0-2.052-0.922-2.052-2.051
					v-4.31c0-1.129,0.923-2.053,2.052-2.053h6.156c1.128,0,2.052,0.924,2.052,2.053V137.531z"/>
				<path style="fill:#1E252B;" d="M135.79,137.531c0,1.129-0.923,2.051-2.052,2.051h-6.156c-1.129,0-2.052-0.922-2.052-2.051v-4.31
					c0-1.129,0.923-2.053,2.052-2.053h6.156c1.129,0,2.052,0.924,2.052,2.053V137.531z"/>
				<path style="fill:#1E252B;" d="M149.334,137.531c0,1.129-0.924,2.051-2.052,2.051h-6.156c-1.129,0-2.052-0.922-2.052-2.051
					v-4.31c0-1.129,0.923-2.053,2.052-2.053h6.156c1.128,0,2.052,0.924,2.052,2.053V137.531z"/>
				<path style="fill:#1E252B;" d="M122.246,149.787c0,1.129-0.924,2.053-2.052,2.053h-6.156c-1.128,0-2.052-0.924-2.052-2.053
					v-4.309c0-1.129,0.923-2.053,2.052-2.053h6.156c1.128,0,2.052,0.924,2.052,2.053V149.787z"/>
				<path style="fill:#1E252B;" d="M135.79,149.787c0,1.129-0.923,2.053-2.052,2.053h-6.156c-1.129,0-2.052-0.924-2.052-2.053
					v-4.309c0-1.129,0.923-2.053,2.052-2.053h6.156c1.129,0,2.052,0.924,2.052,2.053V149.787z"/>
				<path style="fill:#1E252B;" d="M149.334,149.787c0,1.129-0.924,2.053-2.052,2.053h-6.156c-1.129,0-2.052-0.924-2.052-2.053
					v-4.309c0-1.129,0.923-2.053,2.052-2.053h6.156c1.128,0,2.052,0.924,2.052,2.053V149.787z"/>
				<path style="fill:#1E252B;" d="M122.246,162.043c0,1.129-0.924,2.053-2.052,2.053h-6.156c-1.128,0-2.052-0.924-2.052-2.053
					v-4.309c0-1.129,0.923-2.053,2.052-2.053h6.156c1.128,0,2.052,0.924,2.052,2.053V162.043z"/>
				<path style="fill:#1E252B;" d="M135.79,162.043c0,1.129-0.923,2.053-2.052,2.053h-6.156c-1.129,0-2.052-0.924-2.052-2.053
					v-4.309c0-1.129,0.923-2.053,2.052-2.053h6.156c1.129,0,2.052,0.924,2.052,2.053V162.043z"/>
				<path style="fill:#1E252B;" d="M149.334,162.043c0,1.129-0.924,2.053-2.052,2.053h-6.156c-1.129,0-2.052-0.924-2.052-2.053
					v-4.309c0-1.129,0.923-2.053,2.052-2.053h6.156c1.128,0,2.052,0.924,2.052,2.053V162.043z"/>
				<path style="fill:#1E252B;" d="M122.246,174.299c0,1.129-0.924,2.053-2.052,2.053h-6.156c-1.128,0-2.052-0.924-2.052-2.053
					v-4.309c0-1.129,0.923-2.052,2.052-2.052h6.156c1.128,0,2.052,0.923,2.052,2.052V174.299z"/>
				<path style="fill:#1E252B;" d="M135.79,174.299c0,1.129-0.923,2.053-2.052,2.053h-6.156c-1.129,0-2.052-0.924-2.052-2.053
					v-4.309c0-1.129,0.923-2.052,2.052-2.052h6.156c1.129,0,2.052,0.923,2.052,2.052V174.299z"/>
				<path style="fill:#1E252B;" d="M149.334,174.299c0,1.129-0.924,2.053-2.052,2.053h-6.156c-1.129,0-2.052-0.924-2.052-2.053
					v-4.309c0-1.129,0.923-2.052,2.052-2.052h6.156c1.128,0,2.052,0.923,2.052,2.052V174.299z"/>
			</g>
		</g>
		<polygon style="opacity:0.15;fill:#FFFFFF;enable-background:new    ;" points="217.597,106.078 80.622,243.052 80.622,329.209 
			125.379,329.209 220.062,234.525 220.062,106.078 		"/>
		<polygon style="fill:#333E48;" points="165.284,206.706 165.284,100.236 135.401,100.236 135.401,206.706 68.357,206.706 
			68.357,228.581 135.401,228.581 135.401,335.051 165.284,335.051 165.284,228.581 232.329,228.581 232.329,206.706 		"/>
	</g>
	<path style="fill:#005CB9;" d="M276.082,77.335c12.922-1.404,27.636-0.559,44.957,14.942
		c17.324,15.499,29.438,60.313-4.152,129.115c-32.943,67.482-68.257,84.949-99.676,84.479c-25.532-0.385-42.406-14.29-44.335-18.165
		c-1.931-3.876-4.456-7.254,1.559-14.009c6.009-6.755,23.305-26.116,26.52-29.394c3.215-3.275,6.966-10.071,15.293-6.129
		c8.327,3.947,15.508,7.041,19.47,8.617c3.961,1.572,19.385,8.138,43.23-39.384c23.846-47.528,15.932-50.784,8.555-53.688
		c-7.374-2.9-13.428-5.225-16.291-7.346c-2.865-2.121-6.087-4.048-5.97-10.035c0.119-5.992,0.55-49.449,0.584-51.814
		C265.862,82.166,268.538,78.154,276.082,77.335z"/>
</g>
<g>
</g>
<g>
</g>
<g>
</g>
<g>
</g>
<g>
</g>
<g>
</g>
<g>
</g>
<g>
</g>
<g>
</g>
<g>
</g>
<g>
</g>
<g>
</g>
<g>
</g>
<g>
</g>
<g>
</g>
</svg>
